<svg xmlns="http://www.w3.org/2000/svg" width="600" height="400" viewBox="0 0 600 400">
  <rect width="600" height="400" fill="#e9ecef"/>
  <text x="300" y="50" font-family="Arial" font-size="24" text-anchor="middle" fill="#495057">Sydney</text>
  <!-- Simple Sydney Opera House -->
  <path d="M200,320 L200,250 C200,200 250,200 250,250 L250,320 Z" fill="#495057"/>
  <path d="M260,320 L260,250 C260,180 310,180 310,250 L310,320 Z" fill="#495057"/>
  <path d="M320,320 L320,250 C320,160 370,160 370,250 L370,320 Z" fill="#495057"/>
  <path d="M380,320 L380,250 C380,200 430,200 430,250 L430,320 Z" fill="#495057"/>
  <!-- Simple bridge -->
  <path d="M150,280 L480,280 L480,290 L150,290 Z" fill="#495057"/>
  <path d="M150,290 L150,320 L160,320 L160,290 Z" fill="#495057"/>
  <path d="M480,290 L480,320 L470,320 L470,290 Z" fill="#495057"/>
  <text x="300" y="350" font-family="Arial" font-size="16" text-anchor="middle" fill="#495057">Flights from €199</text>
</svg> 