<svg xmlns="http://www.w3.org/2000/svg" width="600" height="400" viewBox="0 0 600 400">
  <rect width="600" height="400" fill="#e9ecef"/>
  <text x="300" y="50" font-family="Arial" font-size="24" text-anchor="middle" fill="#495057">Tokyo</text>
  <!-- Simple Mount Fuji silhouette -->
  <path d="M150,320 L300,100 L450,320 Z" fill="#495057"/>
  <!-- Simple pagoda -->
  <path d="M380,320 L420,320 L420,280 L430,280 L430,270 L410,260 L410,240 L420,240 L420,230 L400,220 L400,200 L410,200 L410,190 L390,180 L390,160 L380,160 L370,160 L370,180 L350,190 L350,200 L360,200 L360,220 L340,230 L340,240 L350,240 L350,260 L330,270 L330,280 L340,280 L340,320 Z" fill="#495057"/>
  <text x="300" y="350" font-family="Arial" font-size="16" text-anchor="middle" fill="#495057">Flights from €199</text>
</svg> 